<mxfile host="app.diagrams.net" modified="2022-08-20T13:11:50.046Z" agent="5.0 (Windows NT 10.0; Win64; x64) AppleWebKit/537.36 (KHTML, like Gecko) Chrome/104.0.0.0 Safari/537.36" etag="QjfeVySO_MkU3vnVZ18I" version="20.2.5" type="github" pages="3">
  <diagram id="5-bm3lcThZxIUOPdriQm" name="Page-1">
    <mxGraphModel dx="1635" dy="-5007" grid="0" gridSize="10" guides="1" tooltips="1" connect="1" arrows="1" fold="1" page="1" pageScale="1" pageWidth="827" pageHeight="1169" math="0" shadow="0">
      <root>
        <mxCell id="0" />
        <mxCell id="1" parent="0" />
        <mxCell id="f1GB4FolLqDb_TCZjOLl-1" value="&lt;div style=&quot;text-align: center&quot;&gt;&lt;span&gt;Cas d&#39;utilisation : Gerer accords&lt;/span&gt;&lt;/div&gt;" style="shape=umlFrame;tabPosition=left;html=1;boundedLbl=1;labelInHeader=1;width=212;height=30;swimlaneFillColor=#ffffff;align=left;spacingLeft=5;fontSize=14;" parent="1" vertex="1">
          <mxGeometry x="26" y="5902" width="766" height="327" as="geometry" />
        </mxCell>
        <mxCell id="f1GB4FolLqDb_TCZjOLl-2" style="edgeStyle=orthogonalEdgeStyle;rounded=0;orthogonalLoop=1;jettySize=auto;html=1;endArrow=none;endFill=0;" parent="1" source="f1GB4FolLqDb_TCZjOLl-3" target="f1GB4FolLqDb_TCZjOLl-11" edge="1">
          <mxGeometry relative="1" as="geometry" />
        </mxCell>
        <mxCell id="f1GB4FolLqDb_TCZjOLl-3" value="&lt;span style=&quot;font-weight: 700&quot;&gt;Administrateur&lt;/span&gt;" style="shape=umlActor;verticalLabelPosition=bottom;verticalAlign=top;html=1;outlineConnect=0;" parent="1" vertex="1">
          <mxGeometry x="59" y="5971" width="30" height="60" as="geometry" />
        </mxCell>
        <mxCell id="f1GB4FolLqDb_TCZjOLl-11" value="Consulter la liste des projets" style="shape=ellipse;html=1;strokeWidth=3;fontStyle=1;whiteSpace=wrap;align=center;perimeter=ellipsePerimeter;fillColor=#dae8fc;strokeColor=#67BFBC;" parent="1" vertex="1">
          <mxGeometry x="132" y="5975" width="181" height="52" as="geometry" />
        </mxCell>
        <mxCell id="f1GB4FolLqDb_TCZjOLl-12" value="Ajouter un projet" style="shape=ellipse;html=1;strokeWidth=3;fontStyle=1;whiteSpace=wrap;align=center;perimeter=ellipsePerimeter;fillColor=#dae8fc;strokeColor=#67BFBC;" parent="1" vertex="1">
          <mxGeometry x="385" y="5918" width="160" height="45" as="geometry" />
        </mxCell>
        <mxCell id="f1GB4FolLqDb_TCZjOLl-13" value="Supprimer un projet" style="shape=ellipse;html=1;strokeWidth=3;fontStyle=1;whiteSpace=wrap;align=center;perimeter=ellipsePerimeter;fillColor=#dae8fc;strokeColor=#67BFBC;" parent="1" vertex="1">
          <mxGeometry x="385" y="5977" width="160" height="45" as="geometry" />
        </mxCell>
        <mxCell id="f1GB4FolLqDb_TCZjOLl-14" value="Modifier un projet" style="shape=ellipse;html=1;strokeWidth=3;fontStyle=1;whiteSpace=wrap;align=center;perimeter=ellipsePerimeter;fillColor=#dae8fc;strokeColor=#67BFBC;" parent="1" vertex="1">
          <mxGeometry x="385" y="6036.5" width="160" height="45" as="geometry" />
        </mxCell>
        <mxCell id="f1GB4FolLqDb_TCZjOLl-15" value="" style="edgeStyle=none;html=1;startArrow=open;endArrow=none;startSize=12;verticalAlign=bottom;dashed=1;labelBackgroundColor=none;rounded=0;entryX=0;entryY=0.5;entryDx=0;entryDy=0;exitX=0.534;exitY=-0.061;exitDx=0;exitDy=0;exitPerimeter=0;" parent="1" source="f1GB4FolLqDb_TCZjOLl-11" target="f1GB4FolLqDb_TCZjOLl-12" edge="1">
          <mxGeometry x="0.4294" y="-13" width="160" relative="1" as="geometry">
            <mxPoint x="211" y="6062" as="sourcePoint" />
            <mxPoint x="371" y="6062" as="targetPoint" />
            <mxPoint as="offset" />
          </mxGeometry>
        </mxCell>
        <mxCell id="f1GB4FolLqDb_TCZjOLl-116" value="&lt;span style=&quot;&quot;&gt;&amp;lt;&amp;lt;extend&amp;gt;&amp;gt;&lt;/span&gt;" style="edgeLabel;html=1;align=center;verticalAlign=middle;resizable=0;points=[];labelBackgroundColor=none;" parent="f1GB4FolLqDb_TCZjOLl-15" vertex="1" connectable="0">
          <mxGeometry x="0.2944" relative="1" as="geometry">
            <mxPoint x="27" y="3" as="offset" />
          </mxGeometry>
        </mxCell>
        <mxCell id="f1GB4FolLqDb_TCZjOLl-16" value="" style="edgeStyle=none;html=1;startArrow=open;endArrow=none;startSize=12;verticalAlign=bottom;dashed=1;labelBackgroundColor=none;rounded=0;" parent="1" source="f1GB4FolLqDb_TCZjOLl-11" target="f1GB4FolLqDb_TCZjOLl-13" edge="1">
          <mxGeometry x="0.2658" y="-2" width="160" relative="1" as="geometry">
            <mxPoint x="303" y="5948" as="sourcePoint" />
            <mxPoint x="463" y="5948" as="targetPoint" />
            <mxPoint y="1" as="offset" />
          </mxGeometry>
        </mxCell>
        <mxCell id="f1GB4FolLqDb_TCZjOLl-117" value="&lt;span style=&quot;&quot;&gt;&amp;lt;&amp;lt;extend&amp;gt;&amp;gt;&lt;/span&gt;" style="edgeLabel;html=1;align=center;verticalAlign=middle;resizable=0;points=[];labelBackgroundColor=none;" parent="f1GB4FolLqDb_TCZjOLl-16" vertex="1" connectable="0">
          <mxGeometry x="0.0999" relative="1" as="geometry">
            <mxPoint x="5" y="-6" as="offset" />
          </mxGeometry>
        </mxCell>
        <mxCell id="f1GB4FolLqDb_TCZjOLl-17" value="" style="edgeStyle=none;html=1;startArrow=open;endArrow=none;startSize=12;verticalAlign=bottom;dashed=1;labelBackgroundColor=none;rounded=0;entryX=0;entryY=0.5;entryDx=0;entryDy=0;exitX=0.887;exitY=0.835;exitDx=0;exitDy=0;exitPerimeter=0;" parent="1" source="f1GB4FolLqDb_TCZjOLl-11" target="f1GB4FolLqDb_TCZjOLl-14" edge="1">
          <mxGeometry x="0.5007" y="4" width="160" relative="1" as="geometry">
            <mxPoint x="303" y="5948" as="sourcePoint" />
            <mxPoint x="463" y="5948" as="targetPoint" />
            <mxPoint as="offset" />
          </mxGeometry>
        </mxCell>
        <mxCell id="f1GB4FolLqDb_TCZjOLl-118" value="&lt;span style=&quot;&quot;&gt;&amp;lt;&amp;lt;extend&amp;gt;&amp;gt;&lt;/span&gt;" style="edgeLabel;html=1;align=center;verticalAlign=middle;resizable=0;points=[];labelBackgroundColor=none;" parent="f1GB4FolLqDb_TCZjOLl-17" vertex="1" connectable="0">
          <mxGeometry x="0.3253" relative="1" as="geometry">
            <mxPoint x="6" y="-11" as="offset" />
          </mxGeometry>
        </mxCell>
        <mxCell id="f1GB4FolLqDb_TCZjOLl-21" value="Consulter un projet" style="shape=ellipse;html=1;strokeWidth=3;fontStyle=1;whiteSpace=wrap;align=center;perimeter=ellipsePerimeter;fillColor=#dae8fc;strokeColor=#67BFBC;" parent="1" vertex="1">
          <mxGeometry x="385" y="6096" width="160" height="45" as="geometry" />
        </mxCell>
        <mxCell id="f1GB4FolLqDb_TCZjOLl-22" value="" style="edgeStyle=none;html=1;startArrow=open;endArrow=none;startSize=12;verticalAlign=bottom;dashed=1;labelBackgroundColor=none;rounded=0;entryX=0;entryY=0.5;entryDx=0;entryDy=0;exitX=0.559;exitY=1.031;exitDx=0;exitDy=0;exitPerimeter=0;" parent="1" source="f1GB4FolLqDb_TCZjOLl-11" target="f1GB4FolLqDb_TCZjOLl-21" edge="1">
          <mxGeometry x="0.6549" y="7" width="160" relative="1" as="geometry">
            <mxPoint x="115" y="6096" as="sourcePoint" />
            <mxPoint x="275" y="6096" as="targetPoint" />
            <mxPoint x="1" as="offset" />
          </mxGeometry>
        </mxCell>
        <mxCell id="f1GB4FolLqDb_TCZjOLl-119" value="&lt;span style=&quot;&quot;&gt;&amp;lt;&amp;lt;extend&amp;gt;&amp;gt;&lt;/span&gt;" style="edgeLabel;html=1;align=center;verticalAlign=middle;resizable=0;points=[];labelBackgroundColor=none;" parent="f1GB4FolLqDb_TCZjOLl-22" vertex="1" connectable="0">
          <mxGeometry x="0.6118" relative="1" as="geometry">
            <mxPoint x="12" y="-7" as="offset" />
          </mxGeometry>
        </mxCell>
        <mxCell id="f1GB4FolLqDb_TCZjOLl-23" value="Afficher un tableau de bord" style="shape=ellipse;html=1;strokeWidth=3;fontStyle=1;whiteSpace=wrap;align=center;perimeter=ellipsePerimeter;fillColor=#dae8fc;strokeColor=#67BFBC;" parent="1" vertex="1">
          <mxGeometry x="611" y="6040" width="171" height="51" as="geometry" />
        </mxCell>
        <mxCell id="f1GB4FolLqDb_TCZjOLl-24" value="" style="html=1;startArrow=open;endArrow=none;startSize=12;verticalAlign=bottom;dashed=1;labelBackgroundColor=none;rounded=0;" parent="1" source="f1GB4FolLqDb_TCZjOLl-21" target="f1GB4FolLqDb_TCZjOLl-23" edge="1">
          <mxGeometry x="0.908" y="8" width="160" relative="1" as="geometry">
            <mxPoint x="559.9995968747721" y="5504.571428571428" as="sourcePoint" />
            <mxPoint x="772" y="5357" as="targetPoint" />
            <mxPoint as="offset" />
          </mxGeometry>
        </mxCell>
        <mxCell id="f1GB4FolLqDb_TCZjOLl-25" value="&lt;span style=&quot;&quot;&gt;&amp;lt;&amp;lt;extend&amp;gt;&amp;gt;&lt;/span&gt;" style="edgeLabel;html=1;align=center;verticalAlign=middle;resizable=0;points=[];labelBackgroundColor=none;" parent="f1GB4FolLqDb_TCZjOLl-24" vertex="1" connectable="0">
          <mxGeometry x="0.9007" y="1" relative="1" as="geometry">
            <mxPoint x="-22" y="76" as="offset" />
          </mxGeometry>
        </mxCell>
        <mxCell id="f1GB4FolLqDb_TCZjOLl-26" value="Afficher les dÃ©tails" style="shape=ellipse;html=1;strokeWidth=3;fontStyle=1;whiteSpace=wrap;align=center;perimeter=ellipsePerimeter;fillColor=#dae8fc;strokeColor=#67BFBC;" parent="1" vertex="1">
          <mxGeometry x="611" y="6170" width="171" height="51" as="geometry" />
        </mxCell>
        <mxCell id="f1GB4FolLqDb_TCZjOLl-27" value="" style="html=1;startArrow=open;endArrow=none;startSize=12;verticalAlign=bottom;dashed=1;labelBackgroundColor=none;rounded=0;fontSize=11;" parent="1" source="f1GB4FolLqDb_TCZjOLl-21" target="f1GB4FolLqDb_TCZjOLl-26" edge="1">
          <mxGeometry x="0.8584" y="-3" width="160" relative="1" as="geometry">
            <mxPoint x="559.9995968747721" y="5504.571428571428" as="sourcePoint" />
            <mxPoint x="772" y="5356" as="targetPoint" />
            <mxPoint as="offset" />
          </mxGeometry>
        </mxCell>
        <mxCell id="f1GB4FolLqDb_TCZjOLl-28" value="&lt;span style=&quot;&quot;&gt;&amp;lt;&amp;lt;extend&amp;gt;&amp;gt;&lt;/span&gt;" style="edgeLabel;html=1;align=center;verticalAlign=middle;resizable=0;points=[];labelBackgroundColor=none;" parent="f1GB4FolLqDb_TCZjOLl-27" vertex="1" connectable="0">
          <mxGeometry x="0.7681" y="-2" relative="1" as="geometry">
            <mxPoint x="-18" y="-75" as="offset" />
          </mxGeometry>
        </mxCell>
      </root>
    </mxGraphModel>
  </diagram>
  <diagram id="FBNtymdH8Alv-iv4_5cH" name="Page-2">
    <mxGraphModel dx="1635" dy="-3838" grid="0" gridSize="10" guides="1" tooltips="1" connect="1" arrows="1" fold="1" page="1" pageScale="1" pageWidth="827" pageHeight="1169" math="0" shadow="0">
      <root>
        <mxCell id="0" />
        <mxCell id="1" parent="0" />
        <mxCell id="bddx92euk6SRgo5DXzkS-1" value="&lt;div style=&quot;text-align: center&quot;&gt;&lt;span&gt;Cas d&#39;utilisation : Gerer&amp;nbsp; planifications ressources&lt;/span&gt;&lt;/div&gt;" style="shape=umlFrame;tabPosition=left;html=1;boundedLbl=1;labelInHeader=1;width=319;height=30;swimlaneFillColor=#ffffff;align=left;spacingLeft=5;fontSize=14;" parent="1" vertex="1">
          <mxGeometry x="5" y="4697" width="818" height="368" as="geometry" />
        </mxCell>
        <mxCell id="bddx92euk6SRgo5DXzkS-2" style="edgeStyle=orthogonalEdgeStyle;rounded=0;orthogonalLoop=1;jettySize=auto;html=1;endArrow=none;endFill=0;" parent="1" source="bddx92euk6SRgo5DXzkS-3" target="bddx92euk6SRgo5DXzkS-21" edge="1">
          <mxGeometry relative="1" as="geometry">
            <mxPoint x="117" y="4852" as="targetPoint" />
          </mxGeometry>
        </mxCell>
        <mxCell id="bddx92euk6SRgo5DXzkS-3" value="&lt;span style=&quot;font-weight: 700&quot;&gt;Administrateur&lt;/span&gt;" style="shape=umlActor;verticalLabelPosition=bottom;verticalAlign=top;html=1;outlineConnect=0;" parent="1" vertex="1">
          <mxGeometry x="35" y="4822" width="30" height="60" as="geometry" />
        </mxCell>
        <mxCell id="bddx92euk6SRgo5DXzkS-21" value="Consulter un accord" style="shape=ellipse;html=1;strokeWidth=3;fontStyle=1;whiteSpace=wrap;align=center;perimeter=ellipsePerimeter;fillColor=#dae8fc;strokeColor=#67BFBC;" parent="1" vertex="1">
          <mxGeometry x="134" y="4829.5" width="160" height="45" as="geometry" />
        </mxCell>
        <mxCell id="bddx92euk6SRgo5DXzkS-122" style="edgeStyle=orthogonalEdgeStyle;rounded=0;orthogonalLoop=1;jettySize=auto;html=1;dashed=1;endArrow=none;endFill=0;strokeWidth=1;startSize=12;sourcePerimeterSpacing=0;labelBackgroundColor=none;verticalAlign=bottom;startArrow=open;" parent="1" source="bddx92euk6SRgo5DXzkS-21" target="bddx92euk6SRgo5DXzkS-105" edge="1">
          <mxGeometry relative="1" as="geometry">
            <Array as="points">
              <mxPoint x="410" y="4852" />
              <mxPoint x="410" y="4852" />
            </Array>
          </mxGeometry>
        </mxCell>
        <mxCell id="bddx92euk6SRgo5DXzkS-123" value="&lt;span style=&quot;background-color: rgb(248, 249, 250);&quot;&gt;&amp;lt;&amp;lt;extend&amp;gt;&amp;gt;&lt;/span&gt;" style="edgeLabel;html=1;align=center;verticalAlign=middle;resizable=0;points=[];" parent="bddx92euk6SRgo5DXzkS-122" vertex="1" connectable="0">
          <mxGeometry x="0.2108" y="-4" relative="1" as="geometry">
            <mxPoint x="-2" y="-12" as="offset" />
          </mxGeometry>
        </mxCell>
        <mxCell id="bddx92euk6SRgo5DXzkS-105" value="Consulter les planifications ressources" style="shape=ellipse;html=1;strokeWidth=3;fontStyle=1;whiteSpace=wrap;align=center;perimeter=ellipsePerimeter;fillColor=#dae8fc;strokeColor=#67BFBC;" parent="1" vertex="1">
          <mxGeometry x="372" y="4824" width="180" height="58" as="geometry" />
        </mxCell>
        <mxCell id="bddx92euk6SRgo5DXzkS-106" value="Ajouter une planification ressource" style="shape=ellipse;html=1;strokeWidth=3;fontStyle=1;whiteSpace=wrap;align=center;perimeter=ellipsePerimeter;fillColor=#dae8fc;strokeColor=#67BFBC;" parent="1" vertex="1">
          <mxGeometry x="651" y="4709" width="166" height="60" as="geometry" />
        </mxCell>
        <mxCell id="bddx92euk6SRgo5DXzkS-107" value="Supprimer une planification ressource" style="shape=ellipse;html=1;strokeWidth=3;fontStyle=1;whiteSpace=wrap;align=center;perimeter=ellipsePerimeter;fillColor=#dae8fc;strokeColor=#67BFBC;" parent="1" vertex="1">
          <mxGeometry x="651.0000000000002" y="4801" width="166" height="60" as="geometry" />
        </mxCell>
        <mxCell id="bddx92euk6SRgo5DXzkS-108" value="Modifier une planification ressource" style="shape=ellipse;html=1;strokeWidth=3;fontStyle=1;whiteSpace=wrap;align=center;perimeter=ellipsePerimeter;fillColor=#dae8fc;strokeColor=#67BFBC;" parent="1" vertex="1">
          <mxGeometry x="645.0000000000002" y="4895" width="166" height="60" as="geometry" />
        </mxCell>
        <mxCell id="bddx92euk6SRgo5DXzkS-109" value="" style="edgeStyle=none;html=1;startArrow=open;endArrow=none;startSize=12;verticalAlign=bottom;dashed=1;labelBackgroundColor=none;rounded=0;entryX=0;entryY=0.5;entryDx=0;entryDy=0;" parent="1" source="bddx92euk6SRgo5DXzkS-105" target="bddx92euk6SRgo5DXzkS-106" edge="1">
          <mxGeometry x="0.4735" y="-1" width="160" relative="1" as="geometry">
            <mxPoint x="308.28" y="4010.4799999999996" as="sourcePoint" />
            <mxPoint x="468.28" y="4010.4799999999996" as="targetPoint" />
            <mxPoint as="offset" />
          </mxGeometry>
        </mxCell>
        <mxCell id="bddx92euk6SRgo5DXzkS-117" value="&lt;span style=&quot;background-color: rgb(248, 249, 250);&quot;&gt;&amp;lt;&amp;lt;extend&amp;gt;&amp;gt;&lt;/span&gt;" style="edgeLabel;html=1;align=center;verticalAlign=middle;resizable=0;points=[];" parent="bddx92euk6SRgo5DXzkS-109" vertex="1" connectable="0">
          <mxGeometry x="0.2957" y="-2" relative="1" as="geometry">
            <mxPoint x="11" y="-6" as="offset" />
          </mxGeometry>
        </mxCell>
        <mxCell id="bddx92euk6SRgo5DXzkS-110" value="" style="edgeStyle=none;html=1;startArrow=open;endArrow=none;startSize=12;verticalAlign=bottom;dashed=1;labelBackgroundColor=none;rounded=0;entryX=0;entryY=0.5;entryDx=0;entryDy=0;" parent="1" source="bddx92euk6SRgo5DXzkS-105" target="bddx92euk6SRgo5DXzkS-107" edge="1">
          <mxGeometry x="0.385" y="3" width="160" relative="1" as="geometry">
            <mxPoint x="308.28" y="4010.4799999999996" as="sourcePoint" />
            <mxPoint x="468.28" y="4010.4799999999996" as="targetPoint" />
            <mxPoint x="-1" as="offset" />
          </mxGeometry>
        </mxCell>
        <mxCell id="bddx92euk6SRgo5DXzkS-119" value="&lt;span style=&quot;background-color: rgb(248, 249, 250);&quot;&gt;&amp;lt;&amp;lt;extend&amp;gt;&amp;gt;&lt;/span&gt;" style="edgeLabel;html=1;align=center;verticalAlign=middle;resizable=0;points=[];" parent="bddx92euk6SRgo5DXzkS-110" vertex="1" connectable="0">
          <mxGeometry x="0.3258" y="1" relative="1" as="geometry">
            <mxPoint x="-4" as="offset" />
          </mxGeometry>
        </mxCell>
        <mxCell id="bddx92euk6SRgo5DXzkS-111" value="" style="edgeStyle=none;html=1;startArrow=open;endArrow=none;startSize=12;verticalAlign=bottom;dashed=1;labelBackgroundColor=none;rounded=0;entryX=0;entryY=0.5;entryDx=0;entryDy=0;" parent="1" source="bddx92euk6SRgo5DXzkS-105" target="bddx92euk6SRgo5DXzkS-108" edge="1">
          <mxGeometry x="0.3405" y="29" width="160" relative="1" as="geometry">
            <mxPoint x="320.28" y="4102.48" as="sourcePoint" />
            <mxPoint x="483.28" y="4099.48" as="targetPoint" />
            <mxPoint as="offset" />
          </mxGeometry>
        </mxCell>
        <mxCell id="bddx92euk6SRgo5DXzkS-120" value="&lt;span style=&quot;background-color: rgb(248, 249, 250);&quot;&gt;&amp;lt;&amp;lt;extend&amp;gt;&amp;gt;&lt;/span&gt;" style="edgeLabel;html=1;align=center;verticalAlign=middle;resizable=0;points=[];" parent="bddx92euk6SRgo5DXzkS-111" vertex="1" connectable="0">
          <mxGeometry x="0.2181" y="1" relative="1" as="geometry">
            <mxPoint x="3" y="3" as="offset" />
          </mxGeometry>
        </mxCell>
        <mxCell id="bddx92euk6SRgo5DXzkS-112" value="Consulter une planification ressource" style="shape=ellipse;html=1;strokeWidth=3;fontStyle=1;whiteSpace=wrap;align=center;perimeter=ellipsePerimeter;fillColor=#dae8fc;strokeColor=#67BFBC;" parent="1" vertex="1">
          <mxGeometry x="645" y="4988" width="166" height="60" as="geometry" />
        </mxCell>
        <mxCell id="bddx92euk6SRgo5DXzkS-113" value="" style="edgeStyle=none;html=1;startArrow=open;endArrow=none;startSize=12;verticalAlign=bottom;dashed=1;labelBackgroundColor=none;rounded=0;entryX=0;entryY=0.5;entryDx=0;entryDy=0;" parent="1" source="bddx92euk6SRgo5DXzkS-105" target="bddx92euk6SRgo5DXzkS-112" edge="1">
          <mxGeometry x="0.7355" y="15" width="160" relative="1" as="geometry">
            <mxPoint x="597.3899999999999" y="5012.48" as="sourcePoint" />
            <mxPoint x="757.3900000000003" y="5012.48" as="targetPoint" />
            <mxPoint as="offset" />
          </mxGeometry>
        </mxCell>
        <mxCell id="bddx92euk6SRgo5DXzkS-121" value="&lt;span style=&quot;background-color: rgb(248, 249, 250);&quot;&gt;&amp;lt;&amp;lt;extend&amp;gt;&amp;gt;&lt;/span&gt;" style="edgeLabel;html=1;align=center;verticalAlign=middle;resizable=0;points=[];" parent="bddx92euk6SRgo5DXzkS-113" vertex="1" connectable="0">
          <mxGeometry x="0.3623" y="1" relative="1" as="geometry">
            <mxPoint as="offset" />
          </mxGeometry>
        </mxCell>
      </root>
    </mxGraphModel>
  </diagram>
  <diagram id="XDKLDXaoPqXNJZn57H7O" name="Page-3">
    <mxGraphModel dx="1635" dy="-3838" grid="1" gridSize="10" guides="1" tooltips="1" connect="1" arrows="1" fold="1" page="1" pageScale="1" pageWidth="827" pageHeight="1169" math="0" shadow="0">
      <root>
        <mxCell id="0" />
        <mxCell id="1" parent="0" />
        <mxCell id="MiiL5EzHuKexvq0bblBR-1" value="&lt;div style=&quot;text-align: center&quot;&gt;&lt;span&gt;Cas d&#39;utilisation : Gerer&amp;nbsp; iterations et taches&lt;/span&gt;&lt;/div&gt;" style="shape=umlFrame;tabPosition=left;html=1;boundedLbl=1;labelInHeader=1;width=290;height=33;swimlaneFillColor=#ffffff;align=left;spacingLeft=5;fontSize=14;" vertex="1" parent="1">
          <mxGeometry x="10" y="4700" width="850" height="570" as="geometry" />
        </mxCell>
        <mxCell id="MiiL5EzHuKexvq0bblBR-2" style="edgeStyle=orthogonalEdgeStyle;rounded=0;orthogonalLoop=1;jettySize=auto;html=1;endArrow=none;endFill=0;" edge="1" parent="1" source="MiiL5EzHuKexvq0bblBR-3" target="MiiL5EzHuKexvq0bblBR-21">
          <mxGeometry relative="1" as="geometry">
            <mxPoint x="125" y="4971" as="targetPoint" />
          </mxGeometry>
        </mxCell>
        <mxCell id="MiiL5EzHuKexvq0bblBR-3" value="&lt;span style=&quot;font-weight: 700&quot;&gt;Administrateur&lt;/span&gt;" style="shape=umlActor;verticalLabelPosition=bottom;verticalAlign=top;html=1;outlineConnect=0;" vertex="1" parent="1">
          <mxGeometry x="52" y="4941" width="30" height="60" as="geometry" />
        </mxCell>
        <mxCell id="MiiL5EzHuKexvq0bblBR-21" value="Consulter un projet" style="shape=ellipse;html=1;strokeWidth=3;fontStyle=1;whiteSpace=wrap;align=center;perimeter=ellipsePerimeter;fillColor=#dae8fc;strokeColor=#67BFBC;" vertex="1" parent="1">
          <mxGeometry x="147" y="4948.5" width="160" height="45" as="geometry" />
        </mxCell>
        <mxCell id="MiiL5EzHuKexvq0bblBR-40" style="edgeStyle=none;rounded=0;orthogonalLoop=1;jettySize=auto;html=1;exitX=1;exitY=0.5;exitDx=0;exitDy=0;labelBackgroundColor=none;endArrow=none;verticalAlign=bottom;startArrow=open;startSize=12;dashed=1;" edge="1" parent="1" target="MiiL5EzHuKexvq0bblBR-63">
          <mxGeometry relative="1" as="geometry">
            <mxPoint x="583" y="4966.5" as="sourcePoint" />
          </mxGeometry>
        </mxCell>
        <mxCell id="MiiL5EzHuKexvq0bblBR-41" value="&lt;span style=&quot;background-color: rgb(248, 249, 250);&quot;&gt;&amp;lt;&amp;lt;extend&amp;gt;&amp;gt;&lt;/span&gt;" style="edgeLabel;html=1;align=center;verticalAlign=middle;resizable=0;points=[];" vertex="1" connectable="0" parent="MiiL5EzHuKexvq0bblBR-40">
          <mxGeometry x="0.103" y="-1" relative="1" as="geometry">
            <mxPoint x="-10" y="1" as="offset" />
          </mxGeometry>
        </mxCell>
        <mxCell id="MiiL5EzHuKexvq0bblBR-42" style="edgeStyle=none;rounded=0;orthogonalLoop=1;jettySize=auto;html=1;exitX=0.941;exitY=0.749;exitDx=0;exitDy=0;labelBackgroundColor=none;endArrow=none;verticalAlign=bottom;startArrow=open;startSize=12;dashed=1;exitPerimeter=0;" edge="1" parent="1" target="MiiL5EzHuKexvq0bblBR-97">
          <mxGeometry relative="1" as="geometry">
            <mxPoint x="572.9110000000001" y="4979.1990000000005" as="sourcePoint" />
          </mxGeometry>
        </mxCell>
        <mxCell id="MiiL5EzHuKexvq0bblBR-43" value="&lt;span style=&quot;background-color: rgb(248, 249, 250);&quot;&gt;&amp;lt;&amp;lt;extend&amp;gt;&amp;gt;&lt;/span&gt;" style="edgeLabel;html=1;align=center;verticalAlign=middle;resizable=0;points=[];" vertex="1" connectable="0" parent="MiiL5EzHuKexvq0bblBR-42">
          <mxGeometry x="0.2441" y="1" relative="1" as="geometry">
            <mxPoint x="-24" y="-8" as="offset" />
          </mxGeometry>
        </mxCell>
        <mxCell id="MiiL5EzHuKexvq0bblBR-44" style="edgeStyle=none;rounded=0;orthogonalLoop=1;jettySize=auto;html=1;exitX=0.727;exitY=0.979;exitDx=0;exitDy=0;entryX=0.075;entryY=0.173;entryDx=0;entryDy=0;labelBackgroundColor=none;endArrow=none;verticalAlign=bottom;startArrow=open;startSize=12;dashed=1;exitPerimeter=0;entryPerimeter=0;" edge="1" parent="1" source="MiiL5EzHuKexvq0bblBR-50" target="MiiL5EzHuKexvq0bblBR-98">
          <mxGeometry relative="1" as="geometry" />
        </mxCell>
        <mxCell id="MiiL5EzHuKexvq0bblBR-45" value="&lt;span style=&quot;background-color: rgb(248, 249, 250);&quot;&gt;&amp;lt;&amp;lt;extend&amp;gt;&amp;gt;&lt;/span&gt;" style="edgeLabel;html=1;align=center;verticalAlign=middle;resizable=0;points=[];" vertex="1" connectable="0" parent="MiiL5EzHuKexvq0bblBR-44">
          <mxGeometry x="0.1173" relative="1" as="geometry">
            <mxPoint x="11" y="3" as="offset" />
          </mxGeometry>
        </mxCell>
        <mxCell id="MiiL5EzHuKexvq0bblBR-46" style="edgeStyle=none;rounded=0;orthogonalLoop=1;jettySize=auto;html=1;exitX=0.5;exitY=1;exitDx=0;exitDy=0;entryX=0;entryY=0;entryDx=0;entryDy=0;labelBackgroundColor=none;endArrow=none;verticalAlign=bottom;startArrow=open;startSize=12;dashed=1;" edge="1" parent="1" source="MiiL5EzHuKexvq0bblBR-50" target="MiiL5EzHuKexvq0bblBR-99">
          <mxGeometry relative="1" as="geometry" />
        </mxCell>
        <mxCell id="MiiL5EzHuKexvq0bblBR-47" value="&lt;span style=&quot;background-color: rgb(248, 249, 250);&quot;&gt;&amp;lt;&amp;lt;extend&amp;gt;&amp;gt;&lt;/span&gt;" style="edgeLabel;html=1;align=center;verticalAlign=middle;resizable=0;points=[];" vertex="1" connectable="0" parent="MiiL5EzHuKexvq0bblBR-46">
          <mxGeometry x="0.0347" y="1" relative="1" as="geometry">
            <mxPoint x="31" y="26" as="offset" />
          </mxGeometry>
        </mxCell>
        <mxCell id="MiiL5EzHuKexvq0bblBR-48" style="edgeStyle=none;rounded=0;orthogonalLoop=1;jettySize=auto;html=1;entryX=0;entryY=0.5;entryDx=0;entryDy=0;labelBackgroundColor=none;endArrow=none;verticalAlign=bottom;startArrow=open;startSize=12;dashed=1;exitX=0.301;exitY=0.969;exitDx=0;exitDy=0;exitPerimeter=0;" edge="1" parent="1" source="MiiL5EzHuKexvq0bblBR-50" target="MiiL5EzHuKexvq0bblBR-100">
          <mxGeometry relative="1" as="geometry" />
        </mxCell>
        <mxCell id="MiiL5EzHuKexvq0bblBR-49" value="&lt;span style=&quot;background-color: rgb(248, 249, 250);&quot;&gt;&amp;lt;&amp;lt;extend&amp;gt;&amp;gt;&lt;/span&gt;" style="edgeLabel;html=1;align=center;verticalAlign=middle;resizable=0;points=[];" vertex="1" connectable="0" parent="MiiL5EzHuKexvq0bblBR-48">
          <mxGeometry x="-0.0327" y="1" relative="1" as="geometry">
            <mxPoint x="69" y="68" as="offset" />
          </mxGeometry>
        </mxCell>
        <mxCell id="MiiL5EzHuKexvq0bblBR-50" value="Consulter le programme" style="shape=ellipse;html=1;strokeWidth=3;fontStyle=1;whiteSpace=wrap;align=center;perimeter=ellipsePerimeter;fillColor=#dae8fc;strokeColor=#67BFBC;" vertex="1" parent="1">
          <mxGeometry x="416" y="4941" width="171" height="51" as="geometry" />
        </mxCell>
        <mxCell id="MiiL5EzHuKexvq0bblBR-51" value="" style="edgeStyle=orthogonalEdgeStyle;html=1;startArrow=open;endArrow=none;startSize=12;verticalAlign=bottom;dashed=1;labelBackgroundColor=none;rounded=0;fontSize=11;" edge="1" parent="1" source="MiiL5EzHuKexvq0bblBR-21" target="MiiL5EzHuKexvq0bblBR-50">
          <mxGeometry x="0.688" y="-4" width="160" relative="1" as="geometry">
            <mxPoint x="302.4995968747721" y="4478.571428571429" as="sourcePoint" />
            <mxPoint x="534.5" y="4427" as="targetPoint" />
            <Array as="points">
              <mxPoint x="569" y="4971" />
            </Array>
            <mxPoint as="offset" />
          </mxGeometry>
        </mxCell>
        <mxCell id="MiiL5EzHuKexvq0bblBR-52" value="&lt;span style=&quot;&quot;&gt;&amp;lt;&amp;lt;extend&amp;gt;&amp;gt;&lt;/span&gt;" style="edgeLabel;html=1;align=center;verticalAlign=middle;resizable=0;points=[];labelBackgroundColor=none;" vertex="1" connectable="0" parent="MiiL5EzHuKexvq0bblBR-51">
          <mxGeometry x="0.5424" y="-3" relative="1" as="geometry">
            <mxPoint x="-21" y="-11" as="offset" />
          </mxGeometry>
        </mxCell>
        <mxCell id="MiiL5EzHuKexvq0bblBR-54" value="Ajouter une iteration" style="shape=ellipse;html=1;strokeWidth=3;fontStyle=1;whiteSpace=wrap;align=center;perimeter=ellipsePerimeter;fillColor=#dae8fc;strokeColor=#67BFBC;" vertex="1" parent="1">
          <mxGeometry x="680.73" y="4715.5" width="160" height="45" as="geometry" />
        </mxCell>
        <mxCell id="MiiL5EzHuKexvq0bblBR-55" value="Supprimer une iteration" style="shape=ellipse;html=1;strokeWidth=3;fontStyle=1;whiteSpace=wrap;align=center;perimeter=ellipsePerimeter;fillColor=#dae8fc;strokeColor=#67BFBC;" vertex="1" parent="1">
          <mxGeometry x="680.73" y="4781" width="160" height="45" as="geometry" />
        </mxCell>
        <mxCell id="MiiL5EzHuKexvq0bblBR-56" value="modifier une iteration" style="shape=ellipse;html=1;strokeWidth=3;fontStyle=1;whiteSpace=wrap;align=center;perimeter=ellipsePerimeter;fillColor=#dae8fc;strokeColor=#67BFBC;" vertex="1" parent="1">
          <mxGeometry x="680.73" y="4844.5" width="160" height="45" as="geometry" />
        </mxCell>
        <mxCell id="MiiL5EzHuKexvq0bblBR-57" value="" style="edgeStyle=none;html=1;startArrow=open;endArrow=none;startSize=12;verticalAlign=bottom;dashed=1;labelBackgroundColor=none;rounded=0;fontSize=11;exitX=0.5;exitY=0;exitDx=0;exitDy=0;entryX=0;entryY=0.5;entryDx=0;entryDy=0;" edge="1" parent="1" source="MiiL5EzHuKexvq0bblBR-50" target="MiiL5EzHuKexvq0bblBR-54">
          <mxGeometry x="-0.1878" y="7" width="160" relative="1" as="geometry">
            <mxPoint x="626.5" y="4374" as="sourcePoint" />
            <mxPoint x="734.5" y="4365" as="targetPoint" />
            <mxPoint as="offset" />
          </mxGeometry>
        </mxCell>
        <mxCell id="MiiL5EzHuKexvq0bblBR-119" value="&lt;span style=&quot;background-color: rgb(248, 249, 250);&quot;&gt;&amp;lt;&amp;lt;extend&amp;gt;&amp;gt;&lt;/span&gt;" style="edgeLabel;html=1;align=center;verticalAlign=middle;resizable=0;points=[];" vertex="1" connectable="0" parent="MiiL5EzHuKexvq0bblBR-57">
          <mxGeometry x="0.2994" relative="1" as="geometry">
            <mxPoint x="16" y="-6" as="offset" />
          </mxGeometry>
        </mxCell>
        <mxCell id="MiiL5EzHuKexvq0bblBR-58" value="" style="edgeStyle=none;html=1;startArrow=open;endArrow=none;startSize=12;verticalAlign=bottom;dashed=1;labelBackgroundColor=none;rounded=0;fontSize=11;entryX=0;entryY=0.5;entryDx=0;entryDy=0;" edge="1" parent="1" source="MiiL5EzHuKexvq0bblBR-50" target="MiiL5EzHuKexvq0bblBR-55">
          <mxGeometry width="160" relative="1" as="geometry">
            <mxPoint x="647.5" y="4407" as="sourcePoint" />
            <mxPoint x="807.5" y="4394" as="targetPoint" />
          </mxGeometry>
        </mxCell>
        <mxCell id="MiiL5EzHuKexvq0bblBR-118" value="&lt;span style=&quot;background-color: rgb(248, 249, 250);&quot;&gt;&amp;lt;&amp;lt;extend&amp;gt;&amp;gt;&lt;/span&gt;" style="edgeLabel;html=1;align=center;verticalAlign=middle;resizable=0;points=[];" vertex="1" connectable="0" parent="MiiL5EzHuKexvq0bblBR-58">
          <mxGeometry x="0.1538" relative="1" as="geometry">
            <mxPoint x="17" y="-9" as="offset" />
          </mxGeometry>
        </mxCell>
        <mxCell id="MiiL5EzHuKexvq0bblBR-59" value="" style="edgeStyle=none;html=1;startArrow=open;endArrow=none;startSize=12;verticalAlign=bottom;dashed=1;labelBackgroundColor=none;rounded=0;fontSize=11;entryX=0;entryY=0.5;entryDx=0;entryDy=0;" edge="1" parent="1" source="MiiL5EzHuKexvq0bblBR-50" target="MiiL5EzHuKexvq0bblBR-56">
          <mxGeometry x="0.4247" y="-1" width="160" relative="1" as="geometry">
            <mxPoint x="647.5" y="4394" as="sourcePoint" />
            <mxPoint x="807.5" y="4394" as="targetPoint" />
            <mxPoint as="offset" />
          </mxGeometry>
        </mxCell>
        <mxCell id="MiiL5EzHuKexvq0bblBR-117" value="&lt;span style=&quot;background-color: rgb(248, 249, 250);&quot;&gt;&amp;lt;&amp;lt;extend&amp;gt;&amp;gt;&lt;/span&gt;" style="edgeLabel;html=1;align=center;verticalAlign=middle;resizable=0;points=[];" vertex="1" connectable="0" parent="MiiL5EzHuKexvq0bblBR-59">
          <mxGeometry x="0.2599" relative="1" as="geometry">
            <mxPoint as="offset" />
          </mxGeometry>
        </mxCell>
        <mxCell id="MiiL5EzHuKexvq0bblBR-63" value="Consulter une iteration" style="shape=ellipse;html=1;strokeWidth=3;fontStyle=1;whiteSpace=wrap;align=center;perimeter=ellipsePerimeter;fillColor=#dae8fc;strokeColor=#67BFBC;" vertex="1" parent="1">
          <mxGeometry x="680.73" y="4903.5" width="160" height="45" as="geometry" />
        </mxCell>
        <mxCell id="MiiL5EzHuKexvq0bblBR-97" value="Ajouter une tache" style="shape=ellipse;html=1;strokeWidth=3;fontStyle=1;whiteSpace=wrap;align=center;perimeter=ellipsePerimeter;fillColor=#dae8fc;strokeColor=#67BFBC;" vertex="1" parent="1">
          <mxGeometry x="680.73" y="5023" width="160" height="45" as="geometry" />
        </mxCell>
        <mxCell id="MiiL5EzHuKexvq0bblBR-98" value="Supprimer une tache" style="shape=ellipse;html=1;strokeWidth=3;fontStyle=1;whiteSpace=wrap;align=center;perimeter=ellipsePerimeter;fillColor=#dae8fc;strokeColor=#67BFBC;" vertex="1" parent="1">
          <mxGeometry x="680.73" y="5088.5" width="160" height="45" as="geometry" />
        </mxCell>
        <mxCell id="MiiL5EzHuKexvq0bblBR-99" value="modifier une tache" style="shape=ellipse;html=1;strokeWidth=3;fontStyle=1;whiteSpace=wrap;align=center;perimeter=ellipsePerimeter;fillColor=#dae8fc;strokeColor=#67BFBC;" vertex="1" parent="1">
          <mxGeometry x="680.73" y="5152" width="160" height="45" as="geometry" />
        </mxCell>
        <mxCell id="MiiL5EzHuKexvq0bblBR-100" value="Consulter une tache" style="shape=ellipse;html=1;strokeWidth=3;fontStyle=1;whiteSpace=wrap;align=center;perimeter=ellipsePerimeter;fillColor=#dae8fc;strokeColor=#67BFBC;" vertex="1" parent="1">
          <mxGeometry x="679.0000000000002" y="5209" width="160" height="45" as="geometry" />
        </mxCell>
        <mxCell id="MiiL5EzHuKexvq0bblBR-115" style="edgeStyle=orthogonalEdgeStyle;rounded=0;orthogonalLoop=1;jettySize=auto;html=1;exitX=0.5;exitY=1;exitDx=0;exitDy=0;" edge="1" parent="1" source="MiiL5EzHuKexvq0bblBR-21" target="MiiL5EzHuKexvq0bblBR-21">
          <mxGeometry relative="1" as="geometry" />
        </mxCell>
      </root>
    </mxGraphModel>
  </diagram>
</mxfile>
